<svg xmlns="http://www.w3.org/2000/svg" version="1.1" xmlns:xlink="http://www.w3.org/1999/xlink" xmlns:svgjs="http://svgjs.dev/svgjs" width="1500" height="594" viewBox="0 0 1500 594"><g transform="matrix(1,0,0,1,-0.9085899502097163,-1.5264387369610404)"><svg viewBox="0 0 396 157" data-background-color="#000000" preserveAspectRatio="xMidYMid meet" height="594" width="1500" xmlns="http://www.w3.org/2000/svg" xmlns:xlink="http://www.w3.org/1999/xlink"><g id="tight-bounds" transform="matrix(1,0,0,1,0.23986774685536716,0.40345266279946657)"><svg viewBox="0 0 395.5199999999999 156.19309467440107" height="156.19309467440107" width="395.5199999999999"><g><svg viewBox="0 0 395.52000000000004 156.1930946744011" height="156.19309467440107" width="395.5199999999999"><g transform="matrix(1,0,0,1,0,102.44702233851599)"><svg viewBox="0 0 395.52000000000004 53.7460723358851" height="53.7460723358851" width="395.52000000000004"><g id="textblocktransform"><svg viewBox="0 0 395.52000000000004 53.7460723358851" height="53.7460723358851" width="395.52000000000004" id="textblock"><g><svg viewBox="0 0 395.52000000000004 53.7460723358851" height="53.7460723358851" width="395.52000000000004"><g transform="matrix(1,0,0,1,0,0)"><svg width="395.52000000000004" viewBox="0.3607649348192165 -35.451715253363304 340.4320924281337 46.26035391195608" height="53.7460723358851" data-palette-color="#ffffff"><path d="M18.883-8.929c-0.781-0.806-1.839-1.398-3.174-1.776-1.327-0.372-2.775-0.464-4.343-0.275-1.569 0.188-2.848 0.801-3.839 1.839v0c-1.921 2.016-2.675 4.742-2.264 8.177v0c0.319 2.668 1.314 4.838 2.985 6.511 1.664 1.674 3.655 2.372 5.971 2.096 2.317-0.277 3.931-0.957 4.842-2.04 0.911-1.083 1.233-2.739 0.966-4.97v0zM11.54-13.65v0c1.066-0.128 2.278-0.098 3.636 0.089 1.352 0.187 2.432 0.431 3.24 0.73v0l-0.971-8.112c-0.176-1.47-0.853-2.191-2.032-2.164v0c-0.115-0.006-0.263-0.006-0.443 0.002-0.174 0.001-0.305 0.003-0.392 0.007-0.08 0.003-0.181-0.002-0.304-0.014-0.122-0.006-0.214-0.021-0.277-0.047-0.057-0.027-0.115-0.063-0.175-0.11v0c-0.124-0.079-0.208-0.304-0.252-0.675-0.044-0.371 0.161-0.788 0.616-1.252v0c0.811-0.856 1.984-1.376 3.52-1.56v0c1.635-0.196 2.6-0.211 2.895-0.044v0c0.595 0.318 0.931 0.792 1.006 1.42v0l3.172 26.501c0.215 1.794 0.549 2.936 1.004 3.425v0c0.466 0.468 0.861 0.74 1.185 0.815 0.331 0.074 0.617 0.138 0.859 0.189 0.241 0.052 0.414 0.091 0.518 0.12 0.105 0.034 0.236 0.089 0.392 0.164v0c0.276 0.115 0.432 0.324 0.468 0.629v0c0.082 0.682-0.219 1.225-0.903 1.629-0.678 0.397-1.612 0.666-2.803 0.809-1.185 0.142-2.072 0.02-2.663-0.366-0.584-0.393-1.151-1.172-1.699-2.335v0c-1.043 2.502-3.663 4.004-7.86 4.506v0c-3.363 0.403-6.23-0.382-8.601-2.354-2.379-1.978-3.781-4.744-4.206-8.299-0.425-3.555 0.396-6.617 2.465-9.188 2.069-2.571 4.937-4.076 8.605-4.515zM34.829-7.82c-0.604 0.059-1.307-0.113-2.111-0.517-0.797-0.404-1.233-0.991-1.308-1.761-0.075-0.763 0.073-1.508 0.444-2.234 0.372-0.72 0.885-1.329 1.539-1.829 0.654-0.5 1.428-0.94 2.322-1.322v0c1.627-0.695 3.412-1.138 5.356-1.329v0c3.271-0.321 5.717 0.17 7.339 1.471 1.622 1.308 2.596 3.627 2.922 6.958v0l0.683 7.168c0.17 1.732 0.495 2.795 0.975 3.19v0c0.124 0.102 0.493 0.213 1.108 0.334v0c1.703 0.356 2.568 0.669 2.594 0.941v0c0.166 1.699-1.489 2.718-4.965 3.059v0c-1.314 0.129-2.198-0.076-2.652-0.614-0.455-0.545-0.775-1.585-0.959-3.122v0c-0.594 1.385-1.598 2.555-3.012 3.511-1.407 0.955-2.96 1.516-4.659 1.682-1.705 0.167-3.17 0.09-4.393-0.232-1.224-0.322-2.252-0.938-3.085-1.848-0.832-0.903-1.304-1.922-1.415-3.057-0.111-1.135-0.071-2.06 0.12-2.775 0.192-0.709 0.46-1.318 0.806-1.827 0.339-0.509 0.828-0.982 1.468-1.42 0.634-0.437 1.232-0.794 1.794-1.07 0.562-0.276 1.296-0.549 2.201-0.819v0c1.335-0.392 2.458-0.686 3.37-0.883 0.912-0.197 1.384-0.303 1.416-0.319v0c0.092-0.022 0.64-0.136 1.644-0.342 0.998-0.205 1.773-0.499 2.325-0.881v0c-0.301-3.072-0.909-5.039-1.824-5.9v0c-0.809-0.738-2.046-1.025-3.712-0.863-1.672 0.164-2.881 0.711-3.627 1.642-0.753 0.931-1.039 2.319-0.858 4.164v0l0.073 0.535c-0.669 0.146-1.309 0.249-1.919 0.309zM46.911-5.518v0c-1.062 0.513-2.275 0.913-3.641 1.201-1.372 0.288-2.445 0.578-3.22 0.868-0.769 0.283-1.408 0.607-1.915 0.972v0c-1.158 0.83-1.652 2.111-1.482 3.843v0c0.273 2.787 2.029 4.021 5.266 3.704v0c2.8-0.274 4.44-1.785 4.922-4.532v0c0.289-1.562 0.312-3.581 0.07-6.056zM88.145-5.482v0c1.13-0.084 1.754 0.661 1.872 2.237 0.118 1.576-0.348 3.078-1.398 4.506-1.049 1.435-2.335 2.21-3.858 2.324v0l-18.037 1.247c-2.533 0.189-4.138 0.229-4.815 0.119v0c-1.4-0.223-2.134-0.773-2.199-1.651v0c-0.025-0.339 0.064-0.573 0.269-0.702 0.198-0.128 0.345-0.216 0.441-0.264 0.096-0.054 0.399-0.163 0.908-0.328v0c1.17-0.448 1.868-1.032 2.096-1.751v0c0.139-0.92 0.172-1.858 0.1-2.816v0l-1.419-19.007c-0.158-2.121-0.642-3.355-1.45-3.702v0c-0.401-0.184-1.269-0.437-2.603-0.758v0c-0.361-0.087-0.556-0.333-0.587-0.739v0c-0.066-0.878 0.522-1.51 1.764-1.896v0c0.783-0.252 2.442-0.473 4.974-0.662 2.54-0.19 4.148-0.229 4.825-0.12v0c1.42 0.222 2.163 0.761 2.226 1.619v0c0.028 0.372-0.084 0.625-0.334 0.757-0.251 0.132-0.402 0.214-0.453 0.244-0.058 0.031-0.181 0.077-0.371 0.138-0.196 0.061-0.323 0.108-0.381 0.139-0.065 0.032-0.201 0.082-0.41 0.151-0.208 0.076-0.358 0.134-0.448 0.174-0.097 0.041-0.217 0.096-0.358 0.167v0c-0.296 0.156-0.509 0.346-0.64 0.569v0c-0.411 0.579-0.551 1.753-0.419 3.521v0l1.683 22.537c0.054 0.725 0.836 1.031 2.345 0.918v0c3.324-0.248 6.27-0.592 8.838-1.031 2.567-0.446 4.006-0.787 4.315-1.024v0c0.207-0.276 0.452-0.799 0.736-1.569 0.283-0.77 0.449-1.2 0.495-1.291v0c0.585-1.3 1.349-1.986 2.293-2.056zM103.775 3.013v0c-3.675 0.188-6.691-0.819-9.047-3.022-2.362-2.196-3.634-5.074-3.816-8.636v0c-0.121-2.37 0.363-4.511 1.454-6.423 1.09-1.912 2.622-3.412 4.596-4.501 1.974-1.082 4.203-1.687 6.686-1.814v0c3.575-0.183 6.582 0.778 9.019 2.883 2.437 2.105 3.746 4.922 3.927 8.451v0c0.125 2.437-0.364 4.631-1.466 6.583-1.095 1.952-2.632 3.489-4.61 4.612-1.979 1.116-4.227 1.738-6.744 1.867zM104.635 0.255c2.417-0.124 4.262-1.039 5.537-2.746 1.274-1.714 1.842-3.933 1.702-6.656-0.14-2.73-1.039-5.047-2.699-6.951-1.666-1.904-3.721-2.794-6.164-2.669-2.443 0.125-4.281 1.06-5.514 2.806-1.226 1.738-1.77 3.962-1.631 6.672 0.139 2.716 1.031 5.017 2.676 6.902 1.638 1.885 3.669 2.766 6.093 2.642zM123.118-13.941c-0.606 0.019-1.297-0.2-2.071-0.657-0.768-0.457-1.163-1.072-1.187-1.845-0.023-0.766 0.174-1.499 0.593-2.199 0.419-0.693 0.972-1.267 1.658-1.721 0.686-0.455 1.488-0.843 2.406-1.165v0c1.67-0.585 3.481-0.907 5.432-0.966v0c3.285-0.101 5.693 0.553 7.224 1.959 1.531 1.414 2.347 3.793 2.45 7.139v0l0.2 7.197c0.053 1.739 0.307 2.822 0.76 3.248v0c0.117 0.11 0.478 0.245 1.083 0.407v0c1.675 0.469 2.517 0.84 2.525 1.113v0c0.052 1.706-1.667 2.612-5.159 2.72v0c-1.319 0.04-2.188-0.223-2.606-0.791-0.418-0.574-0.667-1.634-0.747-3.179v0c-0.686 1.342-1.766 2.442-3.241 3.301-1.468 0.859-3.055 1.314-4.76 1.367-1.713 0.052-3.169-0.123-4.368-0.527-1.2-0.403-2.184-1.087-2.954-2.05-0.77-0.957-1.172-2.005-1.207-3.145-0.035-1.139 0.067-2.06 0.305-2.761 0.239-0.694 0.548-1.284 0.927-1.769 0.372-0.485 0.892-0.924 1.56-1.318 0.662-0.394 1.282-0.71 1.862-0.948 0.58-0.238 1.33-0.461 2.25-0.669v0c1.358-0.302 2.499-0.52 3.422-0.655 0.923-0.135 1.401-0.21 1.434-0.224v0c0.093-0.016 0.647-0.093 1.663-0.231 1.01-0.138 1.803-0.379 2.379-0.723v0c-0.095-3.085-0.569-5.088-1.424-6.009v0c-0.758-0.79-1.973-1.16-3.646-1.109-1.679 0.051-2.922 0.516-3.729 1.395-0.813 0.879-1.192 2.244-1.135 4.096v0l0.037 0.539c-0.677 0.101-1.322 0.161-1.936 0.18zM135.019-10.834v0c-1.094 0.44-2.331 0.758-3.713 0.954-1.388 0.196-2.479 0.413-3.271 0.65-0.787 0.231-1.445 0.511-1.975 0.841v0c-1.211 0.751-1.79 1.996-1.737 3.735v0c0.086 2.799 1.754 4.148 5.006 4.049v0c2.812-0.086 4.55-1.483 5.214-4.192v0c0.393-1.539 0.552-3.552 0.476-6.037zM164.779-17.603c-0.688-0.887-1.674-1.592-2.958-2.114-1.278-0.516-2.707-0.767-4.287-0.754-1.58 0.014-2.919 0.482-4.018 1.405v0c-2.131 1.792-3.182 4.417-3.152 7.877v0c0.023 2.687 0.773 4.954 2.248 6.801 1.469 1.847 3.37 2.761 5.704 2.741 2.333-0.02 4.012-0.518 5.037-1.493 1.025-0.976 1.528-2.587 1.509-4.833v0zM158.001-23.105v0c1.073-0.009 2.275 0.154 3.605 0.489 1.323 0.335 2.369 0.696 3.139 1.083v0l-0.07-8.169c-0.013-1.48-0.606-2.272-1.78-2.375v0c-0.114-0.019-0.26-0.034-0.441-0.046-0.173-0.019-0.304-0.031-0.39-0.037-0.08-0.006-0.18-0.022-0.301-0.047-0.12-0.019-0.21-0.045-0.27-0.078-0.054-0.033-0.107-0.076-0.161-0.129v0c-0.114-0.092-0.173-0.325-0.176-0.698-0.003-0.373 0.247-0.765 0.75-1.177v0c0.9-0.761 2.124-1.148 3.67-1.161v0c1.647-0.014 2.607 0.078 2.882 0.275v0c0.557 0.382 0.838 0.89 0.843 1.523v0l0.23 26.689c0.016 1.807 0.222 2.978 0.62 3.515v0c0.411 0.516 0.774 0.83 1.088 0.94 0.321 0.111 0.598 0.205 0.832 0.283 0.234 0.078 0.401 0.137 0.502 0.176 0.1 0.046 0.224 0.115 0.372 0.207v0c0.261 0.144 0.393 0.37 0.395 0.676v0c0.006 0.687-0.353 1.193-1.077 1.52-0.717 0.32-1.676 0.484-2.875 0.494-1.193 0.01-2.062-0.209-2.606-0.657-0.537-0.455-1.014-1.291-1.432-2.508v0c-1.313 2.371-4.083 3.575-8.309 3.611v0c-3.387 0.029-6.149-1.067-8.289-3.289-2.146-2.228-3.234-5.132-3.265-8.712-0.031-3.58 1.124-6.533 3.465-8.86 2.34-2.327 5.357-3.506 9.049-3.538zM180.711-3.42l0.534-25.905c0.006-0.307-0.67-0.657-2.029-1.052-1.359-0.395-2.035-0.729-2.029-1.002v0c0.03-1.48 1.729-2.185 5.094-2.115v0l2.149 0.094c0.273 0.006 0.649 0.223 1.127 0.653 0.478 0.437 0.842 0.884 1.092 1.343v0l12.381 23.41c2.624-4.06 6.881-10.831 12.771-20.311v0l-0.001 0.03c0.083-0.145 0.281-0.508 0.593-1.088 0.312-0.58 0.564-1.005 0.756-1.275 0.192-0.276 0.456-0.614 0.791-1.014v0c0.649-0.747 1.437-1.111 2.363-1.091v0l1.78 0.006c2.979 0.061 4.454 0.825 4.424 2.292v0c-0.01 0.5-0.717 0.815-2.12 0.947-1.403 0.124-2.109 0.437-2.12 0.936v0l-0.533 25.905c-0.006 0.313 0.338 0.577 1.034 0.791 0.696 0.221 1.391 0.429 2.087 0.623 0.696 0.188 1.042 0.412 1.037 0.672v0c-0.03 1.48-1.655 2.186-4.875 2.12v0l-1.929-0.08-2.03-0.002c-3.186-0.066-4.764-0.838-4.734-2.318v0c0.008-0.373 0.356-0.619 1.046-0.739 0.683-0.126 1.362-0.252 2.038-0.378 0.683-0.126 1.028-0.392 1.037-0.798v0l0.448-21.756c-0.324 0.533-1.776 3.041-4.356 7.522v0c-4.349 7.525-7.299 12.166-8.849 13.921v0l0.001-0.02c-0.469 0.444-0.897 0.662-1.284 0.653-0.393-0.008-0.709-0.051-0.947-0.129-0.245-0.078-0.459-0.216-0.642-0.413-0.183-0.197-0.323-0.357-0.42-0.479-0.091-0.129-0.216-0.348-0.377-0.658-0.154-0.31-0.263-0.516-0.327-0.617v0l-10.297-17.736-0.394 19.146c-0.006 0.313 0.338 0.577 1.033 0.792 0.696 0.221 1.395 0.422 2.098 0.603 0.703 0.188 1.052 0.418 1.046 0.692v0c-0.03 1.466-1.558 2.168-4.584 2.106v0l-1.779-0.057-1.851 0.002c-2.959-0.061-4.424-0.831-4.393-2.311v0c0.008-0.387 0.353-0.64 1.036-0.759 0.689-0.112 1.375-0.232 2.058-0.358 0.689-0.126 1.038-0.392 1.046-0.798zM230.175-13.419c-0.606-0.031-1.276-0.305-2.011-0.823-0.728-0.517-1.073-1.162-1.033-1.934 0.039-0.766 0.295-1.48 0.769-2.144 0.474-0.657 1.071-1.184 1.792-1.582 0.721-0.397 1.552-0.719 2.492-0.965v0c1.711-0.448 3.543-0.622 5.493-0.524v0c3.282 0.166 5.629 1.012 7.041 2.539 1.411 1.533 2.032 3.971 1.863 7.314v0l-0.383 7.189c-0.088 1.738 0.077 2.837 0.494 3.299v0c0.107 0.119 0.456 0.283 1.046 0.494v0c1.632 0.603 2.441 1.041 2.427 1.314v0c-0.086 1.704-1.874 2.469-5.363 2.292v0c-1.318-0.067-2.163-0.4-2.532-0.999-0.37-0.606-0.532-1.682-0.488-3.229v0c-0.792 1.282-1.958 2.291-3.497 3.028-1.532 0.737-3.151 1.062-4.856 0.976-1.711-0.086-3.148-0.379-4.311-0.879-1.163-0.499-2.089-1.26-2.778-2.283-0.69-1.016-1.006-2.093-0.948-3.232 0.058-1.139 0.234-2.047 0.528-2.727 0.294-0.673 0.65-1.235 1.067-1.688 0.41-0.453 0.964-0.849 1.662-1.188 0.691-0.339 1.335-0.603 1.932-0.793 0.597-0.19 1.363-0.352 2.298-0.485v0c1.378-0.191 2.533-0.316 3.463-0.376 0.931-0.06 1.413-0.095 1.447-0.107v0c0.094-0.009 0.653-0.04 1.677-0.095 1.017-0.055 1.827-0.231 2.43-0.528v0c0.156-3.083-0.155-5.118-0.933-6.105v0c-0.691-0.849-1.873-1.316-3.544-1.401-1.678-0.085-2.954 0.278-3.829 1.088-0.882 0.81-1.37 2.14-1.464 3.992v0l-0.007 0.54c-0.683 0.046-1.331 0.053-1.944 0.022zM241.785-9.358v0c-1.126 0.35-2.385 0.567-3.778 0.65-1.399 0.083-2.504 0.211-3.313 0.383-0.803 0.166-1.482 0.392-2.037 0.678v0c-1.268 0.65-1.946 1.844-2.033 3.582v0c-0.141 2.796 1.413 4.277 4.661 4.441v0c2.81 0.142 4.655-1.11 5.537-3.755v0c0.517-1.503 0.838-3.496 0.963-5.979zM263.406 1.793v0c3.651 0.256 5.555-0.737 5.712-2.979v0c0.118-1.683-1.436-3.118-4.661-4.306v0c-0.606-0.223-1.336-0.488-2.19-0.794v0c-1.612-0.554-2.693-0.964-3.242-1.23v0c-1.391-0.652-2.545-1.538-3.463-2.658-0.91-1.126-1.315-2.411-1.213-3.854v0c0.131-1.869 1.127-3.356 2.988-4.462 1.862-1.106 4.05-1.571 6.564-1.396v0c2.447 0.171 4.711 0.777 6.789 1.819v0c1.027 0.513 1.842 1.181 2.446 2.006 0.604 0.824 0.876 1.659 0.818 2.503-0.059 0.845-0.445 1.493-1.159 1.944-0.707 0.458-1.42 0.662-2.138 0.612-0.725-0.051-1.199-0.154-1.422-0.31-0.23-0.156-0.327-0.484-0.292-0.983v0c0.219-3.132-1.334-4.815-4.659-5.048v0c-1.377-0.096-2.598 0.122-3.664 0.656-1.067 0.54-1.634 1.296-1.703 2.267v0c-0.107 1.53 1.401 2.851 4.524 3.965v0c0.49 0.161 1.088 0.36 1.793 0.597 0.699 0.236 1.341 0.468 1.926 0.696 0.586 0.228 1.199 0.492 1.839 0.79 0.641 0.299 1.313 0.677 2.016 1.134 0.703 0.457 1.264 0.937 1.684 1.441v0c0.976 1.144 1.411 2.475 1.304 3.991-0.106 1.516-0.707 2.791-1.801 3.823v0c-2.179 2.013-5.177 2.886-8.995 2.619v0c-2.481-0.174-4.74-0.739-6.778-1.698v0c-1.041-0.494-1.859-1.136-2.451-1.925-0.6-0.79-0.87-1.608-0.811-2.453 0.059-0.845 0.374-1.481 0.945-1.909 0.564-0.422 1.189-0.608 1.874-0.56 0.678 0.047 1.242 0.297 1.692 0.75 0.449 0.459 0.652 1.001 0.608 1.626-0.043 0.618-0.147 1.283-0.31 1.993v0c1.678 0.752 3.488 1.196 5.43 1.333zM279.684-1.32l1.186-13.588-1.486-0.11c-0.598-0.052-1.031-0.147-1.3-0.284-0.262-0.137-0.378-0.388-0.346-0.753 0.032-0.365 0.217-0.684 0.555-0.955 0.345-0.271 0.727-0.469 1.146-0.593v0c1.156-0.361 1.857-0.688 2.103-0.981 0.247-0.3 0.636-0.965 1.168-1.996v0c1.316-2.575 2.339-3.831 3.069-3.767v0c0.372 0.032 0.553 0.453 0.543 1.262-0.016 0.802-0.037 1.416-0.061 1.841-0.03 0.419-0.091 1.046-0.184 1.881-0.086 0.829-0.143 1.406-0.171 1.732v0l5.785 0.535c0.565 0.049 1.027 0.23 1.388 0.543 0.367 0.32 0.53 0.715 0.489 1.187-0.041 0.472-0.262 0.82-0.664 1.046-0.408 0.225-0.894 0.313-1.458 0.264v0l-5.808-0.507-1.113 12.411c-0.307 3.52 0.422 5.357 2.189 5.511v0c0.491 0.043 1.225-0.044 2.201-0.26 0.983-0.222 1.621-0.32 1.913-0.295v0c0.664 0.058 0.963 0.469 0.896 1.233v0c-0.052 0.598-0.885 1.131-2.499 1.599-1.62 0.461-3.25 0.62-4.89 0.477-1.647-0.144-2.88-0.897-3.697-2.261-0.818-1.363-1.136-3.087-0.954-5.172zM297.941 4.269c-2.014-2.433-2.832-5.47-2.456-9.111 0.377-3.641 1.81-6.478 4.299-8.513 2.497-2.041 5.492-2.88 8.987-2.518v0c2.765 0.286 5.007 1.419 6.726 3.4 1.711 1.987 2.427 4.329 2.148 7.028v0c-0.136 1.313-1.238 1.862-3.307 1.649v0l-14.055-1.454c-0.238 2.623 0.386 4.919 1.871 6.889 1.479 1.969 3.488 3.085 6.027 3.348v0c1.684 0.174 3.37-0.151 5.058-0.975v0c0.896-0.43 1.46-0.633 1.691-0.609 0.232 0.024 0.485 0.168 0.76 0.43 0.28 0.27 0.403 0.575 0.368 0.913v0c-0.092 0.889-0.747 1.652-1.966 2.29-1.218 0.631-2.536 1.058-3.953 1.28-1.41 0.223-2.633 0.281-3.667 0.173v0c-3.674-0.38-6.517-1.787-8.531-4.22zM313.239-6.484v0c0.16-1.867-0.168-3.429-0.983-4.686-0.821-1.265-2.133-1.99-3.937-2.176-1.804-0.187-3.446 0.297-4.926 1.45-1.487 1.153-2.356 2.561-2.608 4.224v0l5.679 0.588c2.52 0.261 4.778 0.461 6.775 0.6zM325.895 10.006v0l-2.087-0.233c-2.111-0.256-3.379-0.736-3.804-1.439v0c-0.19-0.319-0.26-0.683-0.21-1.093 0.05-0.41 0.247-0.679 0.591-0.805 0.337-0.12 0.705-0.166 1.105-0.138 0.399 0.035 0.775-0.047 1.128-0.246 0.352-0.192 0.56-0.547 0.622-1.063v0l1.452-11.962c0.174-1.436 0.107-2.348-0.202-2.734-0.303-0.379-0.568-0.63-0.795-0.751-0.22-0.127-0.572-0.294-1.058-0.501-0.479-0.206-0.868-0.401-1.168-0.585-0.3-0.184-0.432-0.422-0.397-0.713v0c0.157-1.291 1.972-1.725 5.447-1.304v0c1.469 0.178 2.371 0.546 2.707 1.104 0.335 0.558 0.391 1.757 0.168 3.597v0c0.718-1.323 1.757-2.305 3.117-2.946 1.366-0.633 2.715-0.869 4.045-0.708 1.33 0.161 2.394 0.583 3.191 1.264 0.791 0.674 1.134 1.45 1.027 2.33-0.107 0.88-0.473 1.548-1.099 2.002-0.633 0.46-1.36 0.641-2.181 0.542-0.821-0.1-1.502-0.404-2.045-0.913-0.536-0.508-0.848-1.12-0.936-1.836v0c-0.416-0.118-0.759-0.193-1.03-0.226v0c-2.522-0.306-4.134 2.44-4.838 8.237v0l-0.808 6.661c-0.114 0.94 0.345 1.499 1.378 1.678 1.038 0.186 1.511 0.667 1.416 1.442v0c-0.108 0.887-0.661 1.377-1.659 1.47v0c-0.76 0.069-1.786 0.025-3.077-0.131z" opacity="1" transform="matrix(1,0,0,1,0,0)" fill="#ffffff" class="wordmark-text-0" data-fill-palette-color="primary" id="text-0"></path></svg></g></svg></g></svg></g></svg></g><g transform="matrix(1,0,0,1,133.43522919117282,0)"><svg viewBox="0 0 128.6495416176544 86.9611450394621" height="86.9611450394621" width="128.6495416176544"><g><svg xmlns="http://www.w3.org/2000/svg" xmlns:xlink="http://www.w3.org/1999/xlink" version="1.1" x="0" y="0" viewBox="5.221858000000001 24.731191999999993 89.55476399999999 60.534881999999996" enable-background="new 0 0 100 100" xml:space="preserve" height="86.9611450394621" width="128.6495416176544" class="icon-icon-0" data-fill-palette-color="accent" id="icon-0"><g fill="#ffffff" data-fill-palette-color="accent"><rect x="6.927" y="38.627" transform="matrix(-0.72 -0.694 0.694 -0.72 17.0276 107.879)" fill-rule="evenodd" clip-rule="evenodd" width="46.702" height="23.754" fill="#ffffff" data-fill-palette-color="accent"></rect><rect x="49.251" y="29.458" transform="matrix(-0.72 -0.694 0.694 -0.72 74.5932 109.1439)" fill-rule="evenodd" clip-rule="evenodd" width="20.13" height="20.13" fill="#ffffff" data-fill-palette-color="accent"></rect><rect x="73.202" y="26.316" transform="matrix(-0.72 -0.694 0.694 -0.72 111.5673 105.298)" fill-rule="evenodd" clip-rule="evenodd" width="7.65" height="7.65" fill="#ffffff" data-fill-palette-color="accent"></rect><rect x="65.299" y="25.911" transform="matrix(-0.72 -0.694 0.694 -0.72 78.0598 149.2395)" fill-rule="evenodd" clip-rule="evenodd" width="7.679" height="65.922" fill="#ffffff" data-fill-palette-color="accent"></rect></g></svg></g></svg></g><g></g></svg></g><defs></defs></svg><rect width="395.5199999999999" height="156.19309467440107" fill="none" stroke="none" visibility="hidden"></rect></g></svg></g></svg>